<svg id="Layer_1" data-name="Layer 1" xmlns="http://www.w3.org/2000/svg" viewBox="0 0 655.19 285.2"><defs><style>.cls-1{fill:#fff8eb;stroke:#00a79d;}.cls-1,.cls-2,.cls-4,.cls-5,.cls-6,.cls-8{stroke-miterlimit:10;}.cls-1,.cls-2,.cls-4,.cls-5{stroke-width:13.15px;}.cls-2,.cls-3{fill:#598ac8;}.cls-2,.cls-4{stroke:#598ac8;}.cls-4{fill:#4e74b9;}.cls-5,.cls-6,.cls-8{fill:none;}.cls-5{stroke:#ffcc09;}.cls-6,.cls-8{stroke:#f4826c;stroke-width:3.29px;}.cls-7{fill:#f4826c;}.cls-8{stroke-linecap:round;}</style></defs><g id="Layer_2" data-name="Layer 2"><path id="path6" class="cls-1" d="M347.51,281.66c-2.18-2,1-6,2-16,.8-9.3-1.5-14.35,1.6-16.64,1.38-1,2.07-.12,6.55-1.38,2.64-.69,8.26-2.53,8-3.56-.23-.8-3.33-.12-7.8-.8-7.81-1.15-12.63-3.33-30.89-6-35.59-5.17-40.3-.46-49-6.32-2.19-1.38-8.61-6.2-15.73-4.94-.81.23-2.53.69-5.86,1.84-7,2.3-10.45,3.45-11.71,4-5.86,2.75-6,5.17-15.27,10.79-2.3,1.38-4.94,2.87-6.77,1.84-1.5-.69-1.84-2.53-2.3-4-1.49-4.59-5.05-6.66-9-9.87-8.84-7.12-8.15-11.14-18-18.83-6.2-4.83-11.83-7.81-22-13.44-12.17-6.66-18.25-10-19.29-10.33-2.52-.8-5.85-1.72-5.85-3.1,0-2.53,11.37-4,11.25-4.94-.11-.46-3.67-.23-8.84-.23-4.25-.11-4-.34-10.91-.69-8-.45-12-.57-16.19,0a66.79,66.79,0,0,0-9,2.3,51.36,51.36,0,0,0-15.73,9,355,355,0,0,1-38.23,26.06c-7.35,4.36-14.93,8.84-23,11.25-5.85,1.72-8.26,1.26-13,4-2.3,1.38-4.59,3.1-6.77,2.3-1.73-.58-2.65-2.53-3.1-4,0,0,3.9-8.15,6.77-13.44,1-1.95,3.79-6.77,9.41-15.73,4.83-7.69,10.8-17,18.83-27.44,8.27-10.67,12.4-16,12.63-16.18.58-.46,3-1.84,3.1-4,.12-1.84-1.83-3.22-2.29-4-3.22-5.63-6.09-10.33-7.7-13-2.29-3.78-6.43-9.64-11.71-17.1C32.58,106,32.81,107.15,31,103.82c-5.62-10.34-2.3-12.29-9.87-31.46-1.84-4.82-4.71-11.6-3.1-12.63,1.15-.81,3.9,1.49,5.85,3.1C30.51,68.11,38.2,72,45,77.18,63.23,91.07,63,88.32,73.34,97.39c5.16,4.47,11,10.22,16.65,15.73,8.26,8,10.9,11,16.64,13.89,5.17,2.53,9.53,3.33,16.19,4.48a84.63,84.63,0,0,0,20.67,1.37c10-.68,17-3.32,23-5.39,15.85-5.51,7.81-1.38,50.29-13.89,17.34-5.17,25.95-7.7,36.4-11.26,17.1-5.85,19.74-7.57,32.83-11.25,16.08-4.59,28.36-7.23,28.36-7.23,12.29-2.64,22.16-4.25,22.05-5.86,0-.91-3.22-.69-9.42-3.1-7.12-2.75-10.79-4.13-10.79-5.85,0-2.53,7.58-3,17.57-8,5.62-2.87,10.33-6.89,19.74-14.81,8.16-6.89,12.4-10.56,17.11-16.65,4.48-5.85,6.78-8.84,8.5-13.43,1.26-3.56,1.38-5.51,2.64-5.86,2.41-.57,5.28,5.17,12.63,16.19,3.21,4.71,6.31,8.84,12.63,17.11,4.13,5.28,7.69,9.76,11.71,13a44.24,44.24,0,0,1,4.94,4c2.75,2.53,3.21,3.56,4.93,4.48a11.81,11.81,0,0,0,7.24.92c10-1.38,20.09,2.18,30.08,3.1,17,1.61,32.72,6.08,42.71,9a303.12,303.12,0,0,1,48.1,18.37c13.55,6.32,8.16,4.83,39,20.67,23.19,11.94,38.12,18.83,43.86,21.82,3.9,1.95,4.25,2.41,6.09,2.87,1.14.34,2.52.34,3.1,1.37a3.6,3.6,0,0,1,0,2.87c-1.15,4.37-1.61,6.55-2.07,7.47-1.72,3.56-3.33,4.47-2.87,5.39.69,1.38,4.82.81,5.85.69,2.3-.34,3.56-.92,4.25-.23.46.46.35,1.15.23,2.3a16.66,16.66,0,0,1-1.84,6.31c-2,3.56-5.74,5.28-9.41,7.24-8.84,4.59-6.09,4.24-16.65,9.87-4.59,2.41-4,1.95-12.63,6.32-3.79,1.95-4.93,2.52-11.25,5.85-7.23,3.9-10.91,5.74-13,6.77,0,0-8.61,4.25-21.13,9-20.09,7.46-48.22,13.78-53,14.81-53.05,11.71-79.68,17.45-93.46,16.19-2.3-.11-9.42-1-17.11,2.3-2.41,1-4.13,2.06-12.17,8.95-11.83,10.11-13.32,12.17-19.75,16.65a16,16,0,0,0-1.6,1,68.19,68.19,0,0,1-12.4,6.55c-6.43,2.52-9.65,3.67-11.26,2.29Z" transform="translate(-5.67 -3.63)"/></g><line class="cls-2" x1="276.4" y1="123.85" x2="498.05" y2="123.85"/><circle class="cls-3" cx="498.05" cy="123.85" r="20.4"/><circle class="cls-3" cx="284.3" cy="123.85" r="19.73"/><line class="cls-4" x1="284.3" y1="184.37" x2="498.72" y2="184.37"/><circle class="cls-3" cx="498.72" cy="184.37" r="19.73"/><circle class="cls-3" cx="284.3" cy="184.37" r="19.73"/><line class="cls-5" x1="348.76" y1="184.37" x2="434.26" y2="184.37"/><path class="cls-6" d="M357.39,175.37c3.59-3,19.48-15.66,42.75-14.47a61.92,61.92,0,0,1,33.91,12.45" transform="translate(-5.67 -3.63)"/><polygon class="cls-7" points="419.76 170.05 427.59 169.14 426.68 161.31 430.39 164.24 431.3 172.07 423.47 172.99 419.76 170.05"/><path class="cls-8" d="M437,200.61c-3.58,3-19.48,15.67-42.75,14.48a62,62,0,0,1-33.9-12.45" transform="translate(-5.67 -3.63)"/><polygon class="cls-7" points="363.26 198.68 355.43 199.59 356.34 207.43 352.63 204.49 351.71 196.66 359.55 195.75 363.26 198.68"/></svg>